Ice Age 4 Continental Drift 2012 DVDRip XviD-SCRAT

Screenshots:
 
http://imageshack.us/a/img405/7066/vlcsnap2012093018h22m33.png 
http://imageshack.us/a/img716/6214/vlcsnap2012093018h22m37.png 
http://imageshack.us/a/img88/8677/vlcsnap2012093018h22m41.png

NFO:

Format : AVI
Format/Info : Audio Video Interleave
File size : 702 MiB
Duration : 1h 27mn
Overall bit rate mode : Variable
Overall bit rate : 1 118 Kbps

Video
ID : 0
Format : MPEG-4 Visual
Format profile : Advanced Simple@L5
Format settings, BVOP : 3
Format settings, QPel : No
Format settings, GMC : No warppoints
Format settings, Matrix : Default (H.263)
Codec ID : XVID
Codec ID/Hint : XviD
Duration : 1h 27mn
Bit rate : 977 Kbps
Width : 640 pixels
Height : 272 pixels
Display aspect ratio : 2.35:1
Frame rate : 23.976 fps
Color space : YUV
Chroma subsampling : 4:2:0
Bit depth : 8 bits
Scan type : Progressive
Compression mode : Lossy
Bits/(Pixel*Frame) : 0.234
Stream size : 613 MiB (87%)
Writing library : XviD 1.2.1 (UTC 2008-12-04)

Audio
ID : 1
Format : MPEG Audio
Format version : Version 1
Format profile : Layer 3
Mode : Joint stereo
Mode extension : MS Stereo
Codec ID : 55
Codec ID/Hint : MP3
Duration : 1h 27mn
Bit rate mode : Variable
Bit rate : 130 Kbps
Channel(s) : 2 channels
Sampling rate : 48.0 KHz
Compression mode : Lossy
Stream size : 80.4 MiB (11%)
Alignment : Aligned on interleaves
Interleave, duration : 24 ms (0.58 video frame)
Interleave, preload duration : 191 ms
Title : Audio
Writing library : LAME3.92 
Encoding settings : -m j -V 0 -q 2 -lowpass 15.5 --abr 130